<svg width="24px" height="24px" viewBox="0 0 24 24" fill="none" xmlns="http://www.w3.org/2000/svg"><path d="M18.9999 11H7.4099L12.7099 5.71C12.8036 5.61704 12.878 5.50644 12.9288 5.38458C12.9796 5.26272 13.0057 5.13201 13.0057 5C13.0057 4.86799 12.9796 4.73728 12.9288 4.61542C12.878 4.49356 12.8036 4.38296 12.7099 4.29C12.6169 4.19627 12.5063 4.12188 12.3845 4.07111C12.2626 4.02034 12.1319 3.9942 11.9999 3.9942C11.8679 3.9942 11.7372 4.02034 11.6153 4.07111C11.4935 4.12188 11.3829 4.19627 11.2899 4.29L4.2899 11.29C4.19886 11.3851 4.12749 11.4972 4.0799 11.62C3.97988 11.8635 3.97988 12.1365 4.0799 12.38C4.12749 12.5028 4.19886 12.6149 4.2899 12.71L11.2899 19.71C11.4782 19.8983 11.7336 20.0041 11.9999 20.0041C12.2662 20.0041 12.5216 19.8983 12.7099 19.71C12.8982 19.5217 13.004 19.2663 13.004 19C13.004 18.7337 12.8982 18.4783 12.7099 18.29L7.4099 13H18.9999C19.2651 13 19.5195 12.8946 19.707 12.7071C19.8945 12.5196 19.9999 12.2652 19.9999 12C19.9999 11.7348 19.8945 11.4804 19.707 11.2929C19.5195 11.1054 19.2651 11 18.9999 11Z" fill="#FFFFFF"></path></svg>