<svg width="24px" height="24px" viewBox="0 0 24 24" fill="none" xmlns="http://www.w3.org/2000/svg"><path d="M16 20.25C16.5523 20.25 17 19.8023 17 19.25C17 18.6977 16.5523 18.25 16 18.25C15.4477 18.25 15 18.6977 15 19.25C15 19.8023 15.4477 20.25 16 20.25Z" fill="#FFFFFF"></path><path d="M16 17.25C15.6044 17.25 15.2178 17.3673 14.8889 17.5871C14.56 17.8068 14.3036 18.1192 14.1522 18.4846C14.0009 18.8501 13.9613 19.2522 14.0384 19.6402C14.1156 20.0281 14.3061 20.3845 14.5858 20.6642C14.8655 20.9439 15.2219 21.1344 15.6098 21.2116C15.9978 21.2887 16.3999 21.2491 16.7654 21.0978C17.1308 20.9464 17.4432 20.69 17.6629 20.3611C17.8827 20.0322 18 19.6456 18 19.25C18 18.7196 17.7893 18.2109 17.4142 17.8358C17.0391 17.4607 16.5304 17.25 16 17.25Z" fill="#FFFFFF"></path><path d="M9 17.25C8.60444 17.25 8.21776 17.3673 7.88886 17.5871C7.55996 17.8068 7.30362 18.1192 7.15224 18.4846C7.00087 18.8501 6.96126 19.2522 7.03843 19.6402C7.1156 20.0281 7.30608 20.3845 7.58579 20.6642C7.86549 20.9439 8.22186 21.1344 8.60982 21.2116C8.99778 21.2887 9.39992 21.2491 9.76537 21.0978C10.1308 20.9464 10.4432 20.69 10.6629 20.3611C10.8827 20.0322 11 19.6456 11 19.25C11 18.7196 10.7893 18.2109 10.4142 17.8358C10.0391 17.4607 9.53043 17.25 9 17.25Z" fill="#FFFFFF"></path><path d="M20 5.25H7.00005C6.82375 5.25134 6.64859 5.27829 6.48005 5.33L6.06005 4C6.00854 3.83267 5.91401 3.6818 5.7859 3.56247C5.65779 3.44313 5.5006 3.35953 5.33005 3.32L3.23005 2.82C2.98144 2.78141 2.72742 2.83795 2.51864 2.97834C2.30987 3.11873 2.16169 3.33265 2.10364 3.57745C2.0456 3.82225 2.08196 4.07993 2.20547 4.29911C2.32899 4.51829 2.53058 4.68286 2.77005 4.76L4.31005 5.13L5.31005 8.32C5.30674 8.34991 5.30674 8.38009 5.31005 8.41L7.10005 14.25C7.10005 14.7804 7.31076 15.2891 7.68583 15.6642C8.06091 16.0393 8.56961 16.25 9.10005 16.25H18C18.5305 16.25 19.0392 16.0393 19.4143 15.6642C19.7893 15.2891 20 14.7804 20 14.25L22 7.25C22 6.71957 21.7893 6.21086 21.4143 5.83579C21.0392 5.46072 20.5305 5.25 20 5.25ZM18.08 13.7C18.0279 13.8787 18.001 14.0638 18 14.25H9.10005C9.09219 14.0564 9.05856 13.8647 9.00005 13.68L7.09005 7.25H19.92L18.08 13.7Z" fill="#FFFFFF"></path></svg>