<svg width="24px" height="24px" viewBox="0 0 24 24" fill="none" xmlns="http://www.w3.org/2000/svg"><path d="M12 20C11.8128 20.0006 11.6291 19.9486 11.47 19.85C11.12 19.63 3 14.49 3 9C3 6.58 4.31 4 8 4C8.77719 3.99448 9.54467 4.17277 10.2398 4.52035C10.935 4.86793 11.5381 5.37494 12 6C12.4619 5.37494 13.065 4.86793 13.7602 4.52035C14.4553 4.17277 15.2228 3.99448 16 4C19.69 4 21 6.58 21 9C21 14.49 12.88 19.63 12.53 19.85C12.3709 19.9486 12.1872 20.0006 12 20ZM8 6C7.59402 5.94976 7.18192 5.99278 6.79507 6.12578C6.40821 6.25878 6.05678 6.47826 5.76752 6.76752C5.47826 7.05679 5.25878 7.40821 5.12578 7.79507C4.99278 8.18192 4.94976 8.59402 5 9C5 12.36 9.64 16.21 12 17.81C14.36 16.21 19 12.36 19 9C19.0502 8.59402 19.0072 8.18192 18.8742 7.79507C18.7412 7.40821 18.5217 7.05679 18.2325 6.76752C17.9432 6.47826 17.5918 6.25878 17.2049 6.12578C16.8181 5.99278 16.406 5.94976 16 6C15.3276 6.05015 14.6848 6.29678 14.1514 6.70925C13.6181 7.12173 13.2177 7.68185 13 8.32C12.9304 8.52698 12.795 8.7055 12.6144 8.82829C12.4339 8.95108 12.2181 9.01138 12 9C11.7904 9.00054 11.5858 8.93518 11.4154 8.81316C11.2449 8.69114 11.1171 8.51862 11.05 8.32C10.829 7.6744 10.4211 7.10909 9.87796 6.69598C9.33486 6.28286 8.68116 6.0406 8 6Z" fill="#595959"></path></svg>