<svg width="24px" height="24px" viewBox="0 0 24 24" fill="none" xmlns="http://www.w3.org/2000/svg"><path d="M18.0001 16C17.2573 16.0099 16.5447 16.2949 16.0001 16.8L9.00006 12.42C9.00987 12.2802 9.00987 12.1398 9.00006 12C9.00987 11.8602 9.00987 11.7198 9.00006 11.58L16.0001 7.20001C16.5132 7.65892 17.1686 7.92737 17.8563 7.96031C18.5439 7.99325 19.222 7.78868 19.7767 7.38093C20.3314 6.97317 20.729 6.38704 20.9027 5.72088C21.0765 5.05472 21.0158 4.34908 20.7309 3.72234C20.4461 3.0956 19.9543 2.58592 19.3381 2.2788C18.722 1.97169 18.019 1.88583 17.347 2.03564C16.6751 2.18544 16.0751 2.5618 15.6478 3.10155C15.2204 3.64131 14.9917 4.31162 15.0001 5.00001C14.9902 5.13984 14.9902 5.28018 15.0001 5.42001L8.00006 9.80001C7.57202 9.40318 7.03752 9.13984 6.46205 9.04224C5.88658 8.94465 5.29514 9.01705 4.7602 9.25057C4.22527 9.4841 3.77007 9.8686 3.4504 10.357C3.13072 10.8453 2.96045 11.4163 2.96045 12C2.96045 12.5837 3.13072 13.1547 3.4504 13.6431C3.77007 14.1314 4.22527 14.5159 4.7602 14.7495C5.29514 14.983 5.88658 15.0554 6.46205 14.9578C7.03752 14.8602 7.57202 14.5968 8.00006 14.2L15.0001 18.58C14.9147 19.184 15.0155 19.7997 15.289 20.345C15.5625 20.8903 15.9958 21.3392 16.531 21.6319C17.0662 21.9247 17.678 22.0473 18.2847 21.9834C18.8913 21.9195 19.4641 21.6722 19.9267 21.2744C20.3892 20.8767 20.7194 20.3473 20.8734 19.7571C21.0274 19.1668 20.9977 18.5436 20.7884 17.9706C20.5791 17.3976 20.2001 16.902 19.7019 16.5499C19.2037 16.1978 18.6101 16.006 18.0001 16ZM18.0001 4.00001C18.1978 4.00001 18.3912 4.05866 18.5556 4.16854C18.7201 4.27842 18.8482 4.4346 18.9239 4.61733C18.9996 4.80006 19.0194 5.00112 18.9808 5.1951C18.9423 5.38908 18.847 5.56727 18.7072 5.70712C18.5673 5.84697 18.3891 5.94221 18.1951 5.9808C18.0012 6.01938 17.8001 5.99958 17.6174 5.92389C17.4346 5.8482 17.2785 5.72003 17.1686 5.55558C17.0587 5.39113 17.0001 5.19779 17.0001 5.00001C17.0001 4.7348 17.1054 4.48044 17.2929 4.29291C17.4805 4.10537 17.7348 4.00001 18.0001 4.00001ZM6.00006 13C5.80228 13 5.60894 12.9414 5.44449 12.8315C5.28004 12.7216 5.15187 12.5654 5.07618 12.3827C5.00049 12.2 4.98069 11.9989 5.01927 11.8049C5.05786 11.6109 5.1531 11.4328 5.29295 11.2929C5.4328 11.1531 5.61099 11.0578 5.80497 11.0192C5.99895 10.9806 6.20001 11.0004 6.38274 11.0761C6.56547 11.1518 6.72165 11.28 6.83153 11.4444C6.94141 11.6089 7.00006 11.8022 7.00006 12C7.00006 12.2652 6.8947 12.5196 6.70716 12.7071C6.51963 12.8947 6.26527 13 6.00006 13ZM18.0001 20C17.8023 20 17.6089 19.9414 17.4445 19.8315C17.28 19.7216 17.1519 19.5654 17.0762 19.3827C17.0005 19.2 16.9807 18.9989 17.0193 18.8049C17.0579 18.6109 17.1531 18.4328 17.2929 18.2929C17.4328 18.1531 17.611 18.0578 17.805 18.0192C17.9989 17.9806 18.2 18.0004 18.3827 18.0761C18.5655 18.1518 18.7216 18.28 18.8315 18.4444C18.9414 18.6089 19.0001 18.8022 19.0001 19C19.0001 19.2652 18.8947 19.5196 18.7072 19.7071C18.5196 19.8947 18.2653 20 18.0001 20Z" fill="#FFFFFF"></path></svg>